<svg width="20" height="20" viewBox="0 0 20 20" fill="none" xmlns="http://www.w3.org/2000/svg">
<path d="M17 4.5H14V3.5C14 2.70435 13.6839 1.94129 13.1213 1.37868C12.5587 0.816071 11.7956 0.5 11 0.5H9C8.20435 0.5 7.44129 0.816071 6.87868 1.37868C6.31607 1.94129 6 2.70435 6 3.5V4.5H3C2.20435 4.5 1.44129 4.81607 0.87868 5.37868C0.316071 5.94129 0 6.70435 0 7.5V16.5C0 17.2956 0.316071 18.0587 0.87868 18.6213C1.44129 19.1839 2.20435 19.5 3 19.5H17C17.7956 19.5 18.5587 19.1839 19.1213 18.6213C19.6839 18.0587 20 17.2956 20 16.5V7.5C20 6.70435 19.6839 5.94129 19.1213 5.37868C18.5587 4.81607 17.7956 4.5 17 4.5ZM8 3.5C8 3.23478 8.10536 2.98043 8.29289 2.79289C8.48043 2.60536 8.73478 2.5 9 2.5H11C11.2652 2.5 11.5196 2.60536 11.7071 2.79289C11.8946 2.98043 12 3.23478 12 3.5V4.5H8V3.5ZM18 16.5C18 16.7652 17.8946 17.0196 17.7071 17.2071C17.5196 17.3946 17.2652 17.5 17 17.5H3C2.73478 17.5 2.48043 17.3946 2.29289 17.2071C2.10536 17.0196 2 16.7652 2 16.5V11C4.54626 12.0101 7.26069 12.5293 10 12.53C12.7392 12.5283 15.4535 12.0092 18 11V16.5ZM18 8.81C15.4784 9.91778 12.7542 10.4898 10 10.4898C7.24579 10.4898 4.5216 9.91778 2 8.81V7.5C2 7.23478 2.10536 6.98043 2.29289 6.79289C2.48043 6.60536 2.73478 6.5 3 6.5H17C17.2652 6.5 17.5196 6.60536 17.7071 6.79289C17.8946 6.98043 18 7.23478 18 7.5V8.81Z" fill="black"/>
</svg>
