<svg width="16" height="12" viewBox="0 0 16 12" fill="none" xmlns="http://www.w3.org/2000/svg">
<path d="M15.44 5.7C13.925 2.1825 11.075 0 7.99999 0C4.92499 0 2.07499 2.1825 0.559989 5.7C0.518692 5.79462 0.497375 5.89676 0.497375 6C0.497375 6.10324 0.518692 6.20538 0.559989 6.3C2.07499 9.8175 4.92499 12 7.99999 12C11.075 12 13.925 9.8175 15.44 6.3C15.4813 6.20538 15.5026 6.10324 15.5026 6C15.5026 5.89676 15.4813 5.79462 15.44 5.7ZM7.99999 10.5C5.61499 10.5 3.37249 8.7825 2.07499 6C3.37249 3.2175 5.61499 1.5 7.99999 1.5C10.385 1.5 12.6275 3.2175 13.925 6C12.6275 8.7825 10.385 10.5 7.99999 10.5ZM7.99999 3C7.40665 3 6.82663 3.17595 6.33328 3.50559C5.83993 3.83524 5.45541 4.30377 5.22835 4.85195C5.00129 5.40013 4.94188 6.00333 5.05763 6.58527C5.17339 7.16721 5.45911 7.70176 5.87867 8.12132C6.29823 8.54088 6.83278 8.8266 7.41472 8.94236C7.99666 9.05811 8.59986 8.9987 9.14804 8.77164C9.69622 8.54458 10.1648 8.16006 10.4944 7.66671C10.824 7.17336 11 6.59334 11 6C11 5.20435 10.6839 4.44129 10.1213 3.87868C9.5587 3.31607 8.79564 3 7.99999 3ZM7.99999 7.5C7.70332 7.5 7.41331 7.41203 7.16663 7.2472C6.91996 7.08238 6.7277 6.84811 6.61417 6.57403C6.50064 6.29994 6.47093 5.99834 6.52881 5.70736C6.58669 5.41639 6.72955 5.14912 6.93933 4.93934C7.14911 4.72956 7.41638 4.5867 7.70735 4.52882C7.99832 4.47094 8.29992 4.50065 8.57401 4.61418C8.8481 4.72771 9.08237 4.91997 9.24719 5.16665C9.41202 5.41332 9.49999 5.70333 9.49999 6C9.49999 6.39782 9.34195 6.77936 9.06065 7.06066C8.77934 7.34196 8.39781 7.5 7.99999 7.5Z" fill="white"/>
</svg>
